<?xml version="1.0" encoding="UTF-8"?>
<svg width="512px" height="512px" viewBox="0 0 512 512" version="1.1" xmlns="http://www.w3.org/2000/svg" xmlns:xlink="http://www.w3.org/1999/xlink">
    <title>xile</title>
    <defs>
        <radialGradient cx="50%" cy="50%" fx="50%" fy="50%" r="50%" id="radialGradient-1">
            <stop stop-color="#747AF6" offset="0.0245847902%"></stop>
            <stop stop-color="#08091F" offset="100%"></stop>
        </radialGradient>
    </defs>
    <g id="xile" stroke="none" stroke-width="1" fill="none" fill-rule="evenodd">
        <rect id="Rectangle" fill="url(#radialGradient-1)" x="0" y="0" width="512" height="512" rx="149"></rect>
        <path d="M228.371,315.027 L341.481187,409.883824 C316.171095,423.973471 287.022896,432 256,432 C223.485851,432 193.030961,423.183263 166.89571,407.810167 L228.371,315.027 Z M361.051855,114.777042 C404.112001,146.860535 432,198.173472 432,256 C432,315.889271 402.086917,368.791968 356.386492,400.582349 L264.455,260.566 Z M89.5643461,198.623646 L163.042,260.242 L93.3815364,323.434681 C85.1101722,303.510791 80.3937072,281.738912 80.023579,258.910482 L80,256 C80,235.910695 83.3658359,216.607523 89.5643461,198.623646 Z M256,80 C285.974955,80 314.199727,87.4934219 338.90323,100.709179 L226.467,202.706 L163.236421,106.402567 C189.401304,90.1435979 220.145218,80.5577206 253.089518,80.023579 Z" id="Combined-Shape" fill="#FFFFFF"></path>
    </g>
</svg>