<?xml version="1.0" encoding="UTF-8"?>
<svg width="740px" height="717px" viewBox="0 0 740 717" version="1.1" xmlns="http://www.w3.org/2000/svg" xmlns:xlink="http://www.w3.org/1999/xlink">
    <title>ftp</title>
    <g id="Drivebase" stroke="none" stroke-width="1" fill="none" fill-rule="evenodd">
        <path d="M531.028571,659.028571 L620.914286,659.028571 C636.69385,659.028571 649.485715,671.820436 649.485715,687.6 C649.485715,703.379564 636.69385,716.171429 620.914286,716.171429 L119.428571,716.171429 C103.649007,716.171429 90.8571422,703.379564 90.8571422,687.6 C90.8571422,671.820436 103.649007,659.028571 119.428571,659.028571 L224.742857,659.028571 L273.257143,544.742857 L114.4,544.742857 C51.281743,544.742857 0.114285937,493.5754 0.114285937,430.457143 L0.114285937,0.171428906 L625.542857,0.171428906 C688.661114,0.171428906 739.828571,51.338886 739.828571,114.457143 L739.828571,544.742857 L321.657143,544.742857 C321.388939,545.794826 321.045189,546.826074 320.628571,547.828571 L273.428571,659.028571 L474.171429,659.028571 L432.685714,606 C425.064185,596.248229 426.791086,582.164387 436.542857,574.542857 C446.294628,566.921327 460.37847,568.648229 468,578.4 L531.028571,659.028571 Z M57.3142859,57.3142859 L57.3142859,430.457143 C57.3142859,445.612371 63.3346768,460.14688 74.0510413,470.863245 C84.7674057,481.579609 99.301915,487.6 114.457143,487.6 L682.685714,487.6 L682.685714,114.457143 C682.685714,82.8980145 657.101986,57.3142859 625.542857,57.3142859 L57.3142859,57.3142859 Z M174.457143,378.114286 L131.714286,378.114286 L131.714286,166.571429 L246,166.571429 L246,203.428571 L174.4,203.428571 L174.4,257.828571 L240.285714,257.828571 L240.285714,294.685714 L174.4,294.685714 L174.4,378.114286 L174.457143,378.114286 Z M373.885714,203.428571 L373.885714,378.114286 L331.028571,378.114286 L331.028571,203.428571 L274,203.428571 L274,166.571429 L431.142857,166.571429 L431.142857,203.428571 L374,203.428571 L373.885714,203.428571 Z M507.542857,304.4 L507.542857,378.114286 L464.857143,378.114286 L464.857143,166.571429 L533.828571,166.571429 C583.714285,166.571429 608.685714,188.857143 608.685714,233.485714 C608.685714,255.2 601.142857,272.571429 586.057143,285.6 C571.028572,298.685714 552.171429,304.914286 529.6,304.4 L507.6,304.4 L507.542857,304.4 Z M507.542857,200.685714 L507.542857,269.428571 L529.371429,269.428571 C559.085715,269.428571 573.942857,257.828571 573.942857,234.628571 C573.942857,212 559.257143,200.685714 529.885714,200.685714 L507.542857,200.685714 Z" id="ftp" fill="color(display-p3 1.000 0.503 0.618)" fill-rule="nonzero"></path>
    </g>
</svg>