<?xml version="1.0" encoding="UTF-8"?>
<svg width="668px" height="668px" viewBox="0 0 668 668" version="1.1" xmlns="http://www.w3.org/2000/svg" xmlns:xlink="http://www.w3.org/1999/xlink">
    <title>local</title>
    <g id="Page-1" stroke="none" stroke-width="1" fill="none" fill-rule="evenodd">
        <g id="local" transform="translate(-66, -66)">
            <path d="M66.6666667,231.658333 C66.6666667,202.240667 66.6666667,187.531667 68.9783333,175.279667 C79.1546667,121.343667 121.343667,79.1546667 175.279667,68.9783333 C187.531667,66.6666667 202.240667,66.6666667 231.658333,66.6666667 C244.547333,66.6666667 250.992,66.6666667 257.185667,67.246 C283.888333,69.743 309.217333,80.2346667 329.864667,97.3503333 C334.653333,101.320333 339.21,105.877667 348.323333,114.991667 L366.666667,133.333333 C393.86,160.526 407.456667,174.122333 423.736667,183.181 C432.68,188.157 442.17,192.086667 452.013333,194.892667 C469.93,200 489.156667,200 527.613333,200 L540.07,200 C627.816667,200 671.686667,200 700.206667,225.648667 C702.83,228.008 705.326667,230.504667 707.683333,233.127667 C733.333333,261.645 733.333333,305.518 733.333333,393.263333 L733.333333,466.666667 C733.333333,592.373333 733.333333,655.23 694.28,694.28 C655.23,733.333333 592.373333,733.333333 466.666667,733.333333 L333.333333,733.333333 C207.625333,733.333333 144.771667,733.333333 105.719,694.28 C66.6666667,655.23 66.6666667,592.373333 66.6666667,466.666667 L66.6666667,231.658333 Z" id="Path" fill="#4D76FF" fill-rule="nonzero" opacity="0.5"></path>
            <path d="M666.666667,207.917 C666.64,198.005333 666.496667,192.087667 665.82,186.947333 C659.913333,142.074 624.603333,106.763333 579.73,100.855667 C573.23,100 565.49,100 550.01,100 L332.942667,100 C336.806667,103.464 341.156667,107.815 348.333333,114.991667 L366.676667,133.333333 C393.87,160.526 407.463333,174.122333 423.746667,183.181 C432.69,188.157 442.176667,192.086667 452.02,194.892667 C469.94,200 489.166667,200 527.623333,200 L540.08,200 C599.38,200 638.643333,200 666.666667,207.917 Z" id="Path" fill="#1C284C" fill-rule="nonzero"></path>
            <path d="M408.333333,333.333333 C408.333333,319.526333 419.526667,308.333333 433.333333,308.333333 L600,308.333333 C613.806667,308.333333 625,319.526333 625,333.333333 C625,347.14 613.806667,358.333333 600,358.333333 L433.333333,358.333333 C419.526667,358.333333 408.333333,347.14 408.333333,333.333333 Z" id="Path" fill="#1C274C"></path>
        </g>
    </g>
</svg>